<?xml version="1.0" encoding="UTF-8"?>
<svg version="1.1" xmlns="http://www.w3.org/2000/svg" width="539" height="113">
<path d="M0 0 C177.87 0 355.74 0 539 0 C539 37.29 539 74.58 539 113 C361.13 113 183.26 113 0 113 C0 75.71 0 38.42 0 0 Z " fill="#FBFBFB" transform="translate(0,0)"/>
<path d="M0 0 C6.78307071 3.50964853 10.61383861 7.27223541 13.34008789 14.46557617 C14.82298612 20.31802691 14.65278508 26.2494967 14.55224609 32.24658203 C14.51580256 34.48907404 14.51122767 36.72989886 14.51171875 38.97265625 C14.38125671 65.26320739 14.38125671 65.26320739 7.953125 71.875 C-0.51708147 77.14535069 -11.21465289 76.66328614 -20.796875 74.9375 C-26.63763658 73.30121985 -30.29883421 71.32335281 -33.40234375 65.95703125 C-37.679892 55.92815762 -37.40578579 46.13358192 -36.96533203 35.41894531 C-36.86271211 32.71299506 -36.82072117 30.0123141 -36.79296875 27.3046875 C-36.49316837 10.98989633 -36.49316837 10.98989633 -30.859375 4.625 C-30.38371094 4.01140625 -29.90804688 3.3978125 -29.41796875 2.765625 C-22.76091895 -3.96865275 -8.34859159 -3.43531093 0 0 Z " fill="#0D0D0D" transform="translate(47.859375,11.375)"/>
<path d="M0 0 C4.07160203 3.32765499 6.59385302 7.85598389 7.2668457 13.06567383 C7.45994114 15.54386121 7.58774291 18.01630419 7.6875 20.5 C7.72657471 21.38695557 7.76564941 22.27391113 7.8059082 23.18774414 C8.60766579 44.69084364 8.60766579 44.69084364 2.75 51.6875 C-2.47926202 56.08483398 -7.89460934 56.34142525 -14.4375 56.3125 C-15.52514648 56.33666992 -15.52514648 56.33666992 -16.63476562 56.36132812 C-23.19870195 56.36722564 -27.79389671 54.83059635 -32.9375 50.5625 C-35 48 -35 48 -35 44 C-35.66 44 -36.32 44 -37 44 C-37 32.12 -37 20.24 -37 8 C-36.34 8 -35.68 8 -35 8 C-34.9071875 6.88625 -34.9071875 6.88625 -34.8125 5.75 C-33.73024144 2.08697102 -32.18643352 1.02773042 -29 -1 C-20.76118542 -3.21925815 -7.92346572 -3.62657541 0 0 Z " fill="#090909" transform="translate(104,31)"/>
<path d="M0 0 C3.17962349 2.98039896 3.51380615 6.78001415 3.7890625 10.96484375 C3.7863573 12.31778145 3.77119619 13.67072999 3.74609375 15.0234375 C3.73964844 15.76706543 3.73320312 16.51069336 3.7265625 17.27685547 C3.5691588 29.67485603 3.03714881 42.07196159 2.55859375 54.4609375 C0.74617323 54.48781029 -1.06635858 54.50727465 -2.87890625 54.5234375 C-3.88824219 54.53503906 -4.89757812 54.54664063 -5.9375 54.55859375 C-8.44140625 54.4609375 -8.44140625 54.4609375 -9.44140625 53.4609375 C-9.56350549 52.04976048 -9.61911497 50.63273291 -9.64672852 49.21655273 C-9.67664635 47.86526527 -9.67664635 47.86526527 -9.70716858 46.48667908 C-9.72388107 45.50752029 -9.74059357 44.52836151 -9.7578125 43.51953125 C-9.7785936 42.52212418 -9.79937469 41.5247171 -9.82078552 40.49708557 C-9.88639262 37.29760907 -9.94521759 34.09804768 -10.00390625 30.8984375 C-10.04708087 28.73501711 -10.0906948 26.57160544 -10.13476562 24.40820312 C-10.24208534 19.09253586 -10.34332094 13.77678286 -10.44140625 8.4609375 C-14.89640625 8.9559375 -14.89640625 8.9559375 -19.44140625 9.4609375 C-19.77140625 24.3109375 -20.10140625 39.1609375 -20.44140625 54.4609375 C-24.40140625 54.4609375 -28.36140625 54.4609375 -32.44140625 54.4609375 C-32.77140625 39.6109375 -33.10140625 24.7609375 -33.44140625 9.4609375 C-37.89640625 9.9559375 -37.89640625 9.9559375 -42.44140625 10.4609375 C-42.44140625 24.6509375 -42.44140625 38.8409375 -42.44140625 53.4609375 C-44.82106745 54.6507681 -46.3562636 54.59443716 -49.00390625 54.5859375 C-50.21240234 54.58980469 -50.21240234 54.58980469 -51.4453125 54.59375 C-53.44140625 54.4609375 -53.44140625 54.4609375 -54.44140625 53.4609375 C-54.56961096 51.77930921 -54.62979443 50.09243922 -54.66259766 48.40625 C-54.68577057 47.32843262 -54.70894348 46.25061523 -54.7328186 45.14013672 C-54.75266815 43.96725098 -54.7725177 42.79436523 -54.79296875 41.5859375 C-54.82769791 39.79373779 -54.82769791 39.79373779 -54.86312866 37.96533203 C-54.91084997 35.43331274 -54.95607381 32.90124535 -54.99902344 30.36914062 C-55.06611748 26.4776864 -55.14384648 22.58654506 -55.22265625 18.6953125 C-55.26756886 16.24219917 -55.31186064 13.78907437 -55.35546875 11.3359375 C-55.37936676 10.16305176 -55.40326477 8.99016602 -55.42788696 7.78173828 C-55.44475555 6.7039209 -55.46162415 5.62610352 -55.47900391 4.515625 C-55.49597321 3.56155762 -55.5129425 2.60749023 -55.53042603 1.62451172 C-55.44140625 -0.5390625 -55.44140625 -0.5390625 -54.44140625 -1.5390625 C-51.95546928 -1.61523645 -49.49709375 -1.6298487 -47.01171875 -1.6015625 C-45.89251541 -1.59588257 -45.89251541 -1.59588257 -44.7507019 -1.59008789 C-41.54678776 -1.57368481 -38.34299912 -1.54562394 -35.13916016 -1.51855469 C-32.805019 -1.50048637 -30.47089858 -1.48837811 -28.13671875 -1.4765625 C-27.41163116 -1.46826416 -26.68654358 -1.45996582 -25.93948364 -1.45141602 C-2.75098396 -1.33831652 -2.75098396 -1.33831652 0 0 Z " fill="#0E0E0E" transform="translate(175.44140625,32.5390625)"/>
<path d="M0 0 C5.33333333 0 10.66666667 0 16 0 C16.86496094 -0.03480469 17.72992188 -0.06960937 18.62109375 -0.10546875 C22.6526746 -0.22289343 26.09656427 -0.30755259 29.9375 1 C36.6404544 7.49983457 37.18932267 15.8898457 37.33203125 24.71875 C37.34621094 25.9665625 37.36039063 27.214375 37.375 28.5 C37.43107422 30.3253125 37.43107422 30.3253125 37.48828125 32.1875 C37.56719146 40.39416146 36.72352884 48.04334314 32 55 C27.80312322 57.26124646 23.84927482 57.24008041 19.1875 57.125 C15.6296875 57.063125 15.6296875 57.063125 12 57 C12 62.61 12 68.22 12 74 C9.6203388 75.1898306 8.08514265 75.13349966 5.4375 75.125 C4.22900391 75.12886719 4.22900391 75.12886719 2.99609375 75.1328125 C1 75 1 75 0 74 C-0.09443335 71.69946165 -0.11742128 69.39597827 -0.11352539 67.09350586 C-0.11367142 66.37159561 -0.11381744 65.64968536 -0.1139679 64.90589905 C-0.11326869 62.50885053 -0.10547595 60.11187877 -0.09765625 57.71484375 C-0.0957921 56.05717511 -0.09436818 54.39950593 -0.09336853 52.74183655 C-0.08954312 48.37045786 -0.07971265 43.99911219 -0.06866455 39.62774658 C-0.05845092 35.17045539 -0.05387101 30.71315889 -0.04882812 26.25585938 C-0.0380904 17.50389107 -0.02101371 8.75194964 0 0 Z " fill="#121212" transform="translate(186,31)"/>
<path d="M0 0 C3.96 0 7.92 0 12 0 C12 6.27 12 12.54 12 19 C12.99 18.67 13.98 18.34 15 18 C16.8096818 17.88119646 18.62396447 17.8248035 20.4375 17.8125 C21.38496094 17.79832031 22.33242188 17.78414062 23.30859375 17.76953125 C27.55180637 18.13288327 29.41832675 19.35369639 32.25 22.5 C34 25 34 25 34 27 C34.66 27 35.32 27 36 27 C37.30493857 32.73066537 37.18408776 38.33550592 37.1875 44.1875 C37.19974609 45.27353516 37.21199219 46.35957031 37.22460938 47.47851562 C37.23677303 54.22934438 36.62636421 60.44386326 35 67 C34.34 67 33.68 67 33 67 C32.9071875 67.86625 32.9071875 67.86625 32.8125 68.75 C31.48032055 72.43911231 28.42181986 74.28909007 25 76 C22.02726117 76.17743353 19.09945569 76.27758855 16.125 76.3125 C14.90103516 76.35600586 14.90103516 76.35600586 13.65234375 76.40039062 C7.69815093 76.46352644 7.69815093 76.46352644 4.6171875 74.41796875 C-0.67552 66.50447614 -0.39915313 59.41125275 -0.29296875 50.09765625 C-0.287366 48.65034934 -0.28309911 47.2030367 -0.28010559 45.75572205 C-0.26871009 41.96625768 -0.23928949 38.17714416 -0.20599365 34.38781738 C-0.17517775 30.51315048 -0.16157577 26.63842629 -0.14648438 22.76367188 C-0.1144138 15.1756036 -0.06169021 7.58789587 0 0 Z " fill="#121212" transform="translate(291,12)"/>
<path d="M0 0 C1.60379341 -0.05416188 3.20811406 -0.09286638 4.8125 -0.125 C5.70582031 -0.14820313 6.59914063 -0.17140625 7.51953125 -0.1953125 C10 0 10 0 13 2 C13.43237305 5.07275391 13.43237305 5.07275391 13.51171875 8.9765625 C13.52966995 9.66181 13.54762115 10.3470575 13.56611633 11.05307007 C13.62033708 13.24365059 13.65415053 15.4340119 13.6875 17.625 C13.72066294 19.10940559 13.75515165 20.59378221 13.79101562 22.078125 C13.87606815 25.71853912 13.94282356 29.35902944 14 33 C14.47195801 32.3800415 14.94391602 31.76008301 15.43017578 31.12133789 C16.0539209 30.30914795 16.67766602 29.49695801 17.3203125 28.66015625 C18.24481201 27.45178101 18.24481201 27.45178101 19.18798828 26.21899414 C21.56136266 23.31255386 23.57788566 21.5741726 27 20 C30.03404297 19.70557807 32.96431365 19.75714509 36 20 C35.43310319 24.3147146 33.88294703 27.13651475 31.5 30.75 C30.8709375 31.71421875 30.241875 32.6784375 29.59375 33.671875 C28 36 28 36 27 37 C26.73706944 41.03160191 26.70595156 42.55892734 29 46 C30.27741415 49.9032099 31 52.87239983 31 57 C31.66 57 32.32 57 33 57 C33.66 60.63 34.32 64.26 35 68 C35.66 68 36.32 68 37 68 C37.495 71.465 37.495 71.465 38 75 C34.04 75 30.08 75 26 75 C25.67386719 73.83082031 25.34773438 72.66164063 25.01171875 71.45703125 C24.57069204 69.908746 24.12926462 68.36057486 23.6875 66.8125 C23.47416016 66.04357422 23.26082031 65.27464844 23.04101562 64.48242188 C21.81594319 60.22209536 20.41466325 56.76007679 18 53 C18 52.34 18 51.68 18 51 C16.68 51 15.36 51 14 51 C13.98018066 51.68626465 13.96036133 52.3725293 13.93994141 53.07958984 C13.84489055 56.17845779 13.73513153 59.27663294 13.625 62.375 C13.5940625 63.45523438 13.563125 64.53546875 13.53125 65.6484375 C13.47324219 67.1953125 13.47324219 67.1953125 13.4140625 68.7734375 C13.3826416 69.72653809 13.3512207 70.67963867 13.31884766 71.66162109 C13 74 13 74 11 76 C8.90625 76.265625 8.90625 76.265625 6.5 76.25 C5.7059375 76.25515625 4.911875 76.2603125 4.09375 76.265625 C2 76 2 76 0 74 C-0.24050903 70.95016479 -0.24050903 70.95016479 -0.22705078 66.97998047 C-0.22734283 66.25792419 -0.22763489 65.53586792 -0.22793579 64.79193115 C-0.22654008 62.40022858 -0.21096783 60.00883579 -0.1953125 57.6171875 C-0.19158322 55.9609494 -0.18873585 54.30470911 -0.18673706 52.64846802 C-0.17909389 48.2852776 -0.1594396 43.92221993 -0.1373291 39.55908203 C-0.11688535 35.10841671 -0.1077385 30.65772997 -0.09765625 26.20703125 C-0.07619429 17.47129319 -0.04205018 8.7356631 0 0 Z " fill="#131313" transform="translate(375,12)"/>
<path d="M0 0 C4.7032046 -0.1651627 8.41883246 0.29332309 12.8359375 2.10546875 C12.8359375 2.76546875 12.8359375 3.42546875 12.8359375 4.10546875 C13.7640625 4.44578125 13.7640625 4.44578125 14.7109375 4.79296875 C17.64175566 6.60317997 17.87928349 7.77258393 18.8359375 11.10546875 C19.10435261 14.55157093 19.06845474 17.98281283 19.03125 21.4375 C19.0284201 22.42924728 19.02559021 23.42099457 19.02267456 24.4427948 C19.01150554 27.60131034 18.98640677 30.75953932 18.9609375 33.91796875 C18.95090347 36.06314694 18.94177836 38.20832958 18.93359375 40.35351562 C18.91157689 45.60427659 18.8770694 50.85482413 18.8359375 56.10546875 C15.5359375 56.10546875 12.2359375 56.10546875 8.8359375 56.10546875 C8.8359375 55.44546875 8.8359375 54.78546875 8.8359375 54.10546875 C7.7428125 54.76546875 6.6496875 55.42546875 5.5234375 56.10546875 C0.36726605 58.7344682 -4.50177106 58.48017921 -10.1640625 58.10546875 C-10.1640625 57.44546875 -10.1640625 56.78546875 -10.1640625 56.10546875 C-11.06125 56.01265625 -11.06125 56.01265625 -11.9765625 55.91796875 C-15.09498697 54.7596968 -15.73230992 53.0371526 -17.1640625 50.10546875 C-18.95890326 44.29420112 -19.42228594 37.31645496 -17.1875 31.61328125 C-14.99525938 27.94161445 -13.25166897 25.62451169 -9.1640625 24.10546875 C-6.56841339 23.65813348 -4.02524216 23.28156886 -1.4140625 22.98046875 C-0.71667969 22.89410156 -0.01929688 22.80773437 0.69921875 22.71875 C2.41066082 22.50775029 4.12320379 22.30571374 5.8359375 22.10546875 C6.1659375 18.47546875 6.4959375 14.84546875 6.8359375 11.10546875 C4.1959375 11.10546875 1.5559375 11.10546875 -1.1640625 11.10546875 C-2.1540625 13.41546875 -3.1440625 15.72546875 -4.1640625 18.10546875 C-8.1240625 18.10546875 -12.0840625 18.10546875 -16.1640625 18.10546875 C-16.05674636 11.23723563 -14.89531636 7.58934694 -10.05078125 2.63671875 C-6.75969241 -0.03430988 -4.04453351 0.19711625 0 0 Z " fill="#101010" transform="translate(350.1640625,29.89453125)"/>
<path d="M0 0 C0.96813254 2.90439761 1.12144834 4.7281824 1.11352539 7.74682617 C1.11344986 8.70759567 1.11337433 9.66836517 1.11329651 10.6582489 C1.10813522 11.69270645 1.10297394 12.727164 1.09765625 13.79296875 C1.0962413 14.85413406 1.09482635 15.91529938 1.09336853 17.00862122 C1.08776606 20.40160935 1.07521314 23.79453177 1.0625 27.1875 C1.05748532 29.48632717 1.05292236 31.78515538 1.04882812 34.08398438 C1.03779583 39.72268162 1.02052952 45.36132966 1 51 C-2.3 51 -5.6 51 -9 51 C-9 49.68 -9 48.36 -9 47 C-9.9075 47.66 -10.815 48.32 -11.75 49 C-16.79099078 51.8908539 -22.3552955 51.85362698 -28 51 C-32.10147444 48.95507223 -33.9835445 47.13373378 -36 43 C-37.63036879 37.47293418 -38.24951458 31.77157428 -35.8359375 26.41796875 C-33.04868737 21.99410251 -31.13402426 19.51424873 -26 18 C-23.38574118 17.56112961 -20.81561267 17.18182272 -18.1875 16.875 C-17.49462891 16.78863281 -16.80175781 16.70226562 -16.08789062 16.61328125 C-14.39266294 16.40283919 -12.69642245 16.20058328 -11 16 C-11 12.37 -11 8.74 -11 5 C-15.02030298 4.73150973 -15.02030298 4.73150973 -19 5 C-21.40072446 7.24583901 -21.95753518 8.87260553 -23 12 C-26.63 12 -30.26 12 -34 12 C-33.14285714 3.42857143 -33.14285714 3.42857143 -31 0 C-30.34 0 -29.68 0 -29 0 C-28.75636719 -0.63421875 -28.51273438 -1.2684375 -28.26171875 -1.921875 C-27 -4 -27 -4 -25.08203125 -4.828125 C-14.73485768 -6.75152387 -8.72456394 -5.81637596 0 0 Z " fill="#0E0E0E" transform="translate(263,36)"/>
<path d="M0 0 C3.63 0 7.26 0 11 0 C11.01458252 1.22630127 11.02916504 2.45260254 11.04418945 3.71606445 C11.10212083 8.26177266 11.17935381 12.80698281 11.26245117 17.35229492 C11.29572486 19.32031171 11.32374915 21.28842449 11.34643555 23.2565918 C11.37993678 26.08423812 11.43224963 28.91100282 11.48828125 31.73828125 C11.49467117 32.61962234 11.5010611 33.50096344 11.50764465 34.40901184 C11.53733589 35.6399482 11.53733589 35.6399482 11.56762695 36.89575195 C11.57873001 37.61745071 11.58983307 38.33914948 11.60127258 39.0827179 C12.12194615 41.58637845 12.96130011 42.48614264 15 44 C19.65391157 44.38027273 19.65391157 44.38027273 24 43 C24 28.81 24 14.62 24 0 C27.63 0 31.26 0 35 0 C35.1626827 8.33660587 35.28681386 16.67254123 35.3626852 25.01034546 C35.3991131 28.8826328 35.44846468 32.75382892 35.52807617 36.62548828 C35.60452025 40.36681728 35.64606873 44.10710153 35.6641407 47.84915161 C35.67700713 49.27174314 35.70213374 50.69428182 35.7401104 52.11642456 C36.06083075 64.63229137 36.06083075 64.63229137 31.64477539 69.875 C27.47147654 73.958023 24.01866708 74.1189967 18.3125 74.0625 C17.13300781 74.05347656 15.95351563 74.04445313 14.73828125 74.03515625 C13.38283203 74.01775391 13.38283203 74.01775391 12 74 C12 70.7 12 67.4 12 64 C17.445 63.505 17.445 63.505 23 63 C23.33 59.7 23.66 56.4 24 53 C22.68 53.66 21.36 54.32 20 55 C14.93656963 55.81738233 10.08174322 56.11648361 5.47265625 53.64453125 C1.01111373 49.98977761 -0.29918398 47.76244644 -1 42 C-1.13553137 38.91066931 -1.14028383 35.82631564 -1.1328125 32.734375 C-1.13376923 31.85976624 -1.13472595 30.98515747 -1.13571167 30.08404541 C-1.13638941 28.24515714 -1.13456357 26.40626643 -1.13037109 24.56738281 C-1.12499121 21.7453887 -1.13034304 18.92355187 -1.13671875 16.1015625 C-1.1360584 14.31249965 -1.13477814 12.52343689 -1.1328125 10.734375 C-1.13483673 9.88856873 -1.13686096 9.04276245 -1.13894653 8.17132568 C-1.11497642 2.22995283 -1.11497642 2.22995283 0 0 Z " fill="#090909" transform="translate(493,31)"/>
<path d="M0 0 C1.14210938 -0.01417969 2.28421875 -0.02835938 3.4609375 -0.04296875 C6.46436816 0.17579966 8.10425934 0.61669363 10.625 2.1875 C10.625 2.8475 10.625 3.5075 10.625 4.1875 C11.223125 4.455625 11.82125 4.72375 12.4375 5 C14.72295418 6.24067513 16.06564279 7.10835706 17.625 9.1875 C18.63813378 13.81207664 18.75927155 18.27614615 18.75 23 C18.75580078 24.0199707 18.75580078 24.0199707 18.76171875 25.06054688 C18.75174825 30.06075175 18.75174825 30.06075175 17.625 31.1875 C9.98043642 31.74287428 2.2334128 30.83502449 -5.375 30.1875 C-5.045 35.7975 -4.715 41.4075 -4.375 47.1875 C-1.735 46.5275 0.905 45.8675 3.625 45.1875 C5.49483745 41.71442672 5.49483745 41.71442672 6.625 38.1875 C10.50848484 36.89300505 13.53197336 37.05546688 17.625 37.1875 C18.625 38.1875 18.625 38.1875 19.0625 41.1875 C18.99857355 46.33357906 16.05916112 50.52985768 12.625 54.1875 C9.91796875 55.44921875 9.91796875 55.44921875 7.625 56.1875 C7.625 56.8475 7.625 57.5075 7.625 58.1875 C1.10878391 58.8928636 -4.21902131 58.92602541 -9.9375 55.4375 C-14.40172073 51.81166422 -16.05578231 48.58184889 -17.046875 42.9609375 C-19.67993555 12.68074112 -19.67993555 12.68074112 -12.91015625 4.39453125 C-8.61371875 0.64434008 -5.55028293 0.03118136 0 0 Z " fill="#0F0F0F" transform="translate(434.375,29.8125)"/>
<path d="M0 0 C3.60969213 0.18330468 5.46031674 0.32525956 8.4375 2.5390625 C14.23978181 10.66225703 12.15317312 25.58487898 12.25 35.1640625 C12.28202515 36.85221069 12.28202515 36.85221069 12.31469727 38.57446289 C12.34003998 44.75209568 12.02756085 49.29071461 9 54.7265625 C7.34107528 56.38548722 5.39952582 55.97643063 3.125 56.0390625 C1.79855469 56.09513672 1.79855469 56.09513672 0.4453125 56.15234375 C-2 55.7265625 -2 55.7265625 -3.6953125 54.14453125 C-6.99267077 48.03355888 -7.29585032 42.17538689 -7.1875 35.4140625 C-7.1781543 34.5482959 -7.16880859 33.6825293 -7.15917969 32.79052734 C-7.12104504 30.10203451 -7.06228426 27.41459408 -7 24.7265625 C-6.98598145 23.87304199 -6.97196289 23.01952148 -6.95751953 22.14013672 C-6.911672 19.70927248 -6.836477 17.28128727 -6.75 14.8515625 C-6.73606201 14.12155029 -6.72212402 13.39153809 -6.70776367 12.6394043 C-6.46691135 7.51695957 -5.32866236 1.93580312 0 0 Z " fill="#F7F7F7" transform="translate(34,20.2734375)"/>
<path d="M0 0 C1 1 1 1 1.09765625 3.28515625 C1.08605469 4.20167969 1.07445312 5.11820313 1.0625 6.0625 C1.05347656 6.98160156 1.04445313 7.90070312 1.03515625 8.84765625 C1.02355469 9.55792969 1.01195312 10.26820312 1 11 C0.15695312 11.03738281 -0.68609375 11.07476562 -1.5546875 11.11328125 C-3.19824219 11.21189453 -3.19824219 11.21189453 -4.875 11.3125 C-5.96554687 11.37050781 -7.05609375 11.42851563 -8.1796875 11.48828125 C-9.57574219 11.74158203 -9.57574219 11.74158203 -11 12 C-13.02524814 15.03787221 -13.25231914 15.65770837 -13.28710938 19.07250977 C-13.30052368 19.88667862 -13.31393799 20.70084747 -13.32775879 21.53968811 C-13.33303589 22.4147551 -13.33831299 23.28982208 -13.34375 24.19140625 C-13.3583728 25.0924559 -13.37299561 25.99350555 -13.38806152 26.92185974 C-13.4503923 30.78003889 -13.49000451 34.63837812 -13.53173828 38.49682617 C-13.56539448 41.31185945 -13.61052014 44.12654751 -13.65625 46.94140625 C-13.6615271 47.81849747 -13.6668042 48.69558868 -13.67224121 49.59925842 C-13.77437838 55.77437838 -13.77437838 55.77437838 -16 58 C-23.30434783 58.46376812 -23.30434783 58.46376812 -27 56 C-27.36749268 53.71617126 -27.36749268 53.71617126 -27.35644531 50.83178711 C-27.35944641 49.75404526 -27.36244751 48.67630341 -27.36553955 47.56590271 C-27.35319275 46.39817825 -27.34084595 45.2304538 -27.328125 44.02734375 C-27.32625183 42.83395889 -27.32437866 41.64057404 -27.32244873 40.411026 C-27.31571696 37.8849102 -27.3017804 35.35880501 -27.28125 32.83276367 C-27.25010237 28.95026041 -27.24028199 25.06816265 -27.234375 21.18554688 C-27.22520533 18.73697418 -27.21482967 16.28840564 -27.203125 13.83984375 C-27.19675018 12.08522072 -27.19675018 12.08522072 -27.19024658 10.29515076 C-27.18063904 9.22056107 -27.17103149 8.14597137 -27.16113281 7.03881836 C-27.15430481 6.08776718 -27.14747681 5.136716 -27.14044189 4.15684509 C-27 2 -27 2 -26 1 C-23.98035801 0.92755947 -21.95832876 0.91622812 -19.9375 0.9375 C-18.28041016 0.95103516 -18.28041016 0.95103516 -16.58984375 0.96484375 C-15.73519531 0.97644531 -14.88054687 0.98804687 -14 1 C-13.67 1.99 -13.34 2.98 -13 4 C-12.154375 3.34 -11.30875 2.68 -10.4375 2 C-6.55265222 -0.26027507 -4.41598744 -0.43293994 0 0 Z " fill="#191919" transform="translate(487,30)"/>
<path d="M0 0 C0.75023438 -0.01933594 1.50046875 -0.03867187 2.2734375 -0.05859375 C5.62906685 0.64932141 7.20811007 2.0208574 9.625 4.4375 C10.20849609 7.52197266 10.20849609 7.52197266 10.1484375 11.1015625 C10.13683594 12.38804688 10.12523438 13.67453125 10.11328125 15 C10.07562905 16.35416968 10.03786739 17.70833632 10 19.0625 C9.98348557 20.42445436 9.96913938 21.78643684 9.95703125 23.1484375 C9.80757473 33.07235054 9.80757473 33.07235054 8.625 35.4375 C4.799163 36.9678348 0.66010105 36.6978291 -3.375 36.4375 C-5.375 33.4375 -5.375 33.4375 -5.375 30.4375 C-6.035 30.4375 -6.695 30.4375 -7.375 30.4375 C-7.46190253 26.00012288 -7.51535926 21.56296366 -7.5625 17.125 C-7.58763672 15.86236328 -7.61277344 14.59972656 -7.63867188 13.29882812 C-7.64833984 12.09033203 -7.65800781 10.88183594 -7.66796875 9.63671875 C-7.69153442 7.96355591 -7.69153442 7.96355591 -7.71557617 6.2565918 C-7.375 3.4375 -7.375 3.4375 -5.98706055 1.57714844 C-3.89513618 0.09825961 -2.54901391 0.00434985 0 0 Z " fill="#ECECEC" transform="translate(88.375,39.5625)"/>
<path d="M0 0 C7.48647503 0.61364549 7.48647503 0.61364549 9.60498047 2.20751953 C11.48460616 4.62267736 11.3730646 6.15195734 11.36328125 9.19140625 C11.36263672 10.21943359 11.36199219 11.24746094 11.36132812 12.30664062 C11.34521484 13.38107422 11.32910156 14.45550781 11.3125 15.5625 C11.31572266 16.60986328 11.31894531 17.65722656 11.32226562 18.73632812 C11.276859 25.37807956 10.5726058 31.5466451 9 38 C2.1640625 38.29296875 2.1640625 38.29296875 0 38 C-2.49095696 34.26356456 -2.25791662 32.27455265 -2.265625 27.8125 C-2.26753845 27.11358643 -2.2694519 26.41467285 -2.27142334 25.69458008 C-2.27278283 24.21858357 -2.26910282 22.74257502 -2.26074219 21.26660156 C-2.25003882 19.00819016 -2.2606449 16.75057418 -2.2734375 14.4921875 C-2.27211586 13.05728991 -2.26955338 11.62239282 -2.265625 10.1875 C-2.26224121 8.22876953 -2.26224121 8.22876953 -2.25878906 6.23046875 C-2 3 -2 3 0 0 Z " fill="#F1F1F1" transform="translate(304,40)"/>
<path d="M0 0 C3.12665278 6.85873169 3.48736056 12.82888342 3.4375 20.3125 C3.45748047 21.39595703 3.47746094 22.47941406 3.49804688 23.59570312 C3.49740234 24.63275391 3.49675781 25.66980469 3.49609375 26.73828125 C3.49794678 27.67712158 3.4997998 28.61596191 3.50170898 29.58325195 C3 32 3 32 1.46899414 33.82885742 C-1 35 -1 35 -9 35 C-9 23.78 -9 12.56 -9 1 C-6.04335481 -0.4783226 -3.25770263 -0.06032783 0 0 Z " fill="#F6F6F6" transform="translate(207,43)"/>
<path d="M0 0 C1.22589844 0.01353516 1.22589844 0.01353516 2.4765625 0.02734375 C3.41628906 0.04474609 3.41628906 0.04474609 4.375 0.0625 C5.23381072 10.78809167 5.23381072 10.78809167 2.3125 14.75 C-0.625 17.0625 -0.625 17.0625 -4.25 17.625 C-7.625 17.0625 -7.625 17.0625 -9.5625 16.0625 C-11.28554985 12.81911205 -11.26496746 9.59264311 -10.625 6.0625 C-7.5526273 1.24911611 -5.58047051 -0.07972101 0 0 Z " fill="#E9E9E9" transform="translate(353.625,60.9375)"/>
<path d="M0 0 C0.08160748 1.89510699 0.13946459 3.79124504 0.1875 5.6875 C0.22230469 6.74324219 0.25710937 7.79898438 0.29296875 8.88671875 C-0.04155867 12.44163014 -0.72007929 14.25806893 -3 17 C-5.19140625 17.55859375 -5.19140625 17.55859375 -7.5625 17.4375 C-8.34753906 17.41558594 -9.13257813 17.39367187 -9.94140625 17.37109375 C-12 17 -12 17 -14 15 C-14.83031408 10.06181625 -14.71912477 6.15987866 -12.0625 1.875 C-7.94613247 -0.64522502 -4.70278047 -0.46105691 0 0 Z " fill="#E5E5E5" transform="translate(253,61)"/>
<path d="M0 0 C2.97256988 0.25848434 5.29648681 0.57789209 7.875 2.125 C9.611916 5.01986 9.18630572 7.70859897 9 11 C5.37 11 1.74 11 -2 11 C-1.125 1.125 -1.125 1.125 0 0 Z " fill="#EDEDED" transform="translate(433,40)"/>
<path d="M0 0 C0 0.33 0 0.66 0 1 C-0.94875 1.28875 -1.8975 1.5775 -2.875 1.875 C-6.05211578 2.76825109 -6.05211578 2.76825109 -8 5 C-8.24606015 8.00886724 -8.37380782 10.93217752 -8.4140625 13.9453125 C-8.43342865 14.8303244 -8.4527948 15.7153363 -8.4727478 16.62716675 C-8.53262723 19.45967916 -8.57896213 22.29223203 -8.625 25.125 C-8.66317211 27.04298668 -8.70222338 28.96095607 -8.7421875 30.87890625 C-8.83833555 35.58579748 -8.92233542 40.29276896 -9 45 C-9.33 45 -9.66 45 -10 45 C-10.07409532 39.07351426 -10.12857616 33.14729747 -10.16479492 27.22045898 C-10.17989179 25.20380966 -10.20037115 23.18719321 -10.22631836 21.1706543 C-10.26266211 18.27384329 -10.2797172 15.37746594 -10.29296875 12.48046875 C-10.30845261 11.57725388 -10.32393646 10.674039 -10.33988953 9.74345398 C-10.34011612 8.90280899 -10.34034271 8.062164 -10.34057617 7.19604492 C-10.34723801 6.45658127 -10.35389984 5.71711761 -10.36076355 4.95524597 C-9.30205842 -0.78266448 -4.92537862 -0.27879502 0 0 Z " fill="#8E8E8E" transform="translate(165,41)"/>
<path d="M0 0 C-0.66 1.32 -1.32 2.64 -2 4 C-2.66 4 -3.32 4 -4 4 C-4.33 6.97 -4.66 9.94 -5 13 C-5.33 13 -5.66 13 -6 13 C-6.48929664 5.78287462 -6.48929664 5.78287462 -4.125 2 C-2 0 -2 0 0 0 Z " fill="#A7A7A7" transform="translate(349,62)"/>
<path d="M0 0 C0 0.33 0 0.66 0 1 C-0.928125 1.28875 -1.85625 1.5775 -2.8125 1.875 C-6.09791667 2.8875 -6.09791667 2.8875 -9 5 C-9 3.68 -9 2.36 -9 1 C-6.04335481 -0.4783226 -3.25770263 -0.06032783 0 0 Z " fill="#C5C5C5" transform="translate(165,41)"/>
</svg>
